G75*
G70*
%OFA0B0*%
%FSLAX24Y24*%
%IPPOS*%
%LPD*%
%AMOC8*
5,1,8,0,0,1.08239X$1,22.5*
%
%ADD10C,0.1340*%
%ADD11C,0.0300*%
%ADD12C,0.0860*%
D10*
X001651Y001651D03*
X016151Y001651D03*
X016151Y028651D03*
X001651Y028651D03*
D11*
X008301Y028544D02*
X008301Y029145D01*
X008501Y029345D01*
X008701Y029145D01*
X008701Y028744D01*
X008902Y028544D01*
X009102Y028744D01*
X009102Y029345D01*
X009102Y027964D02*
X009102Y027363D01*
X008902Y027163D01*
X008501Y027163D01*
X008301Y027363D01*
X008301Y027964D01*
X008301Y026643D02*
X008301Y026242D01*
X008301Y026442D02*
X009102Y026442D01*
X009102Y026242D01*
X009502Y026442D02*
X009702Y026442D01*
X008902Y025662D02*
X009102Y025462D01*
X009102Y024861D01*
X008301Y024861D01*
X008501Y024281D02*
X008301Y024081D01*
X008301Y023680D01*
X008501Y023480D01*
X008902Y023480D01*
X009102Y023680D01*
X009102Y024081D01*
X008902Y024281D01*
X008501Y024281D01*
X009102Y022930D02*
X009102Y022729D01*
X008701Y022329D01*
X008301Y022329D02*
X009102Y022329D01*
X009102Y021809D02*
X009102Y021408D01*
X009302Y021608D02*
X008501Y021608D01*
X008301Y021809D01*
X008301Y020828D02*
X008301Y020227D01*
X008501Y020027D01*
X008902Y020027D01*
X009102Y020227D01*
X009102Y020828D01*
X008902Y019447D02*
X008701Y019447D01*
X008701Y018646D01*
X008501Y018646D02*
X008902Y018646D01*
X009102Y018846D01*
X009102Y019247D01*
X008902Y019447D01*
X008301Y019247D02*
X008301Y018846D01*
X008501Y018646D01*
X008301Y018126D02*
X008301Y017725D01*
X008301Y017925D02*
X009502Y017925D01*
X009502Y017725D01*
X009502Y017145D02*
X009502Y016344D01*
X008301Y016344D01*
X008301Y017145D01*
X008902Y016744D02*
X008902Y016344D01*
X008902Y014383D02*
X008301Y014383D01*
X008902Y014383D02*
X009102Y014182D01*
X009102Y013582D01*
X008301Y013582D01*
X008501Y013001D02*
X008301Y012801D01*
X008301Y012401D01*
X008501Y012201D01*
X008902Y012201D01*
X009102Y012401D01*
X009102Y012801D01*
X008902Y013001D01*
X008501Y013001D01*
X008301Y011680D02*
X008301Y011280D01*
X008301Y011480D02*
X009102Y011480D01*
X009102Y011280D01*
X009502Y011480D02*
X009702Y011480D01*
X009102Y010699D02*
X008301Y009899D01*
X008301Y009318D02*
X009102Y008518D01*
X008902Y007937D02*
X008701Y007937D01*
X008701Y007137D01*
X008501Y007137D02*
X008902Y007137D01*
X009102Y007337D01*
X009102Y007737D01*
X008902Y007937D01*
X008301Y007737D02*
X008301Y007337D01*
X008501Y007137D01*
X008301Y006616D02*
X008301Y006216D01*
X008301Y006416D02*
X009502Y006416D01*
X009502Y006216D01*
X008902Y005635D02*
X009102Y005435D01*
X009102Y004835D01*
X007901Y004835D01*
X008301Y004835D02*
X008301Y005435D01*
X008501Y005635D01*
X008902Y005635D01*
X008902Y004254D02*
X008301Y004254D01*
X008301Y003854D02*
X008902Y003854D01*
X009102Y004054D01*
X008902Y004254D01*
X008902Y003854D02*
X009102Y003654D01*
X009102Y003454D01*
X008301Y003454D01*
X008301Y002933D02*
X008301Y002533D01*
X008301Y002733D02*
X009102Y002733D01*
X009102Y002533D01*
X009502Y002733D02*
X009702Y002733D01*
X009302Y001952D02*
X009502Y001752D01*
X009502Y001352D01*
X009302Y001152D01*
X009102Y001152D01*
X008902Y001352D01*
X008902Y001752D01*
X008701Y001952D01*
X008501Y001952D01*
X008301Y001752D01*
X008301Y001352D01*
X008501Y001152D01*
X008301Y008518D02*
X009102Y009318D01*
X009102Y009899D02*
X008301Y010699D01*
X008301Y025662D02*
X008902Y025662D01*
D12*
X010611Y028001D02*
X011391Y028001D01*
X011391Y023301D02*
X010611Y023301D01*
X010611Y021001D02*
X011391Y021001D01*
X011391Y016301D02*
X010611Y016301D01*
X010611Y014001D02*
X011391Y014001D01*
X011391Y009301D02*
X010611Y009301D01*
X010611Y007001D02*
X011391Y007001D01*
X011391Y002301D02*
X010611Y002301D01*
X006591Y002301D02*
X005811Y002301D01*
X005791Y004651D02*
X005011Y004651D01*
X005811Y007001D02*
X006591Y007001D01*
X006591Y009301D02*
X005811Y009301D01*
X005791Y011651D02*
X005011Y011651D01*
X005811Y014001D02*
X006591Y014001D01*
X006591Y016301D02*
X005811Y016301D01*
X005791Y018651D02*
X005011Y018651D01*
X005811Y021001D02*
X006591Y021001D01*
X006591Y023301D02*
X005811Y023301D01*
X005791Y025651D02*
X005011Y025651D01*
X005811Y028001D02*
X006591Y028001D01*
X002041Y026141D02*
X001261Y026141D01*
X001261Y024161D02*
X002041Y024161D01*
X002041Y022121D02*
X001261Y022121D01*
X001261Y020151D02*
X002041Y020151D01*
X002041Y018181D02*
X001261Y018181D01*
X001261Y006141D02*
X002041Y006141D01*
X002041Y004161D02*
X001261Y004161D01*
X015761Y004181D02*
X016541Y004181D01*
X016541Y006151D02*
X015761Y006151D01*
X015761Y008121D02*
X016541Y008121D01*
X016541Y010181D02*
X015761Y010181D01*
X015761Y012151D02*
X016541Y012151D01*
X016541Y014121D02*
X015761Y014121D01*
X015761Y016181D02*
X016541Y016181D01*
X016541Y018151D02*
X015761Y018151D01*
X015761Y020121D02*
X016541Y020121D01*
X016541Y022181D02*
X015761Y022181D01*
X015761Y024151D02*
X016541Y024151D01*
X016541Y026121D02*
X015761Y026121D01*
M02*
