%
M48
M72
T01C0.0520
T02C0.1260
%
T01
X1651Y4161
X1651Y6141
X5401Y4651
X6201Y2301
X6201Y7001
X6201Y9301
X5401Y11651
X6201Y14001
X6201Y16301
X5401Y18651
X6201Y21001
X6201Y23301
X5401Y25651
X6201Y28001
X1651Y26141
X1651Y24161
X1651Y22121
X1651Y20151
X1651Y18181
X11001Y16301
X11001Y14001
X11001Y9301
X11001Y7001
X11001Y2301
X16151Y4181
X16151Y6151
X16151Y8121
X16151Y10181
X16151Y12151
X16151Y14121
X16151Y16181
X16151Y18151
X16151Y20121
X16151Y22181
X16151Y24151
X16151Y26121
X11001Y28001
X11001Y23301
X11001Y21001
T02
X1651Y1651
X16151Y1651
X16151Y28651
X1651Y28651
M30
